<mxfile host="app.diagrams.net" modified="2024-03-04T12:54:17.547Z" agent="Mozilla/5.0 (Macintosh; Intel Mac OS X 10_15_7) AppleWebKit/537.36 (KHTML, like Gecko) Chrome/122.0.0.0 Safari/537.36" version="24.0.1" etag="bk4g_Lh2GcFVc4M3NTGP" type="github">
  <diagram name="Page-1" id="PPaEjVSw2cKRya3mIu79">
    <mxGraphModel>
      <root>
        <mxCell id="0" />
        <mxCell id="1" parent="0" />
      </root>
    </mxGraphModel>
  </diagram>
</mxfile>
